<svg width="71" height="70" viewBox="0 0 71 70" fill="none" xmlns="http://www.w3.org/2000/svg">
<g id="62463eaa5b19373dee199446_CurrencyCircleDollar.svg">
<path id="Vector" d="M35.6875 6.5625C30.0631 6.5625 24.565 8.23033 19.8885 11.3551C15.212 14.4798 11.5671 18.9212 9.41469 24.1174C7.26232 29.3137 6.69916 35.0315 7.79643 40.5479C8.8937 46.0642 11.6021 51.1313 15.5792 55.1083C19.5562 59.0854 24.6233 61.7938 30.1396 62.8911C35.656 63.9883 41.3738 63.4252 46.5701 61.2728C51.7663 59.1205 56.2077 55.4755 59.3324 50.799C62.4572 46.1225 64.125 40.6244 64.125 35C64.1106 27.4623 61.1098 20.2376 55.7799 14.9076C50.45 9.57768 43.2252 6.57695 35.6875 6.5625ZM38.9688 48.125H37.875V50.3125C37.875 50.8927 37.6445 51.4491 37.2343 51.8593C36.8241 52.2695 36.2677 52.5 35.6875 52.5C35.1074 52.5 34.551 52.2695 34.1407 51.8593C33.7305 51.4491 33.5 50.8927 33.5 50.3125V48.125H29.125C28.5449 48.125 27.9885 47.8945 27.5782 47.4843C27.168 47.0741 26.9375 46.5177 26.9375 45.9375C26.9375 45.3573 27.168 44.8009 27.5782 44.3907C27.9885 43.9805 28.5449 43.75 29.125 43.75H38.9688C39.839 43.75 40.6736 43.4043 41.289 42.7889C41.9043 42.1736 42.25 41.339 42.25 40.4688C42.25 39.5985 41.9043 38.7639 41.289 38.1486C40.6736 37.5332 39.839 37.1875 38.9688 37.1875H32.4063C30.3757 37.1875 28.4283 36.3809 26.9925 34.945C25.5567 33.5092 24.75 31.5618 24.75 29.5312C24.75 27.5007 25.5567 25.5533 26.9925 24.1175C28.4283 22.6816 30.3757 21.875 32.4063 21.875H33.5V19.6875C33.5 19.1073 33.7305 18.5509 34.1407 18.1407C34.551 17.7305 35.1074 17.5 35.6875 17.5C36.2677 17.5 36.8241 17.7305 37.2343 18.1407C37.6445 18.5509 37.875 19.1073 37.875 19.6875V21.875H42.25C42.8302 21.875 43.3866 22.1055 43.7968 22.5157C44.207 22.9259 44.4375 23.4823 44.4375 24.0625C44.4375 24.6427 44.207 25.1991 43.7968 25.6093C43.3866 26.0195 42.8302 26.25 42.25 26.25H32.4063C31.536 26.25 30.7014 26.5957 30.0861 27.2111C29.4707 27.8264 29.125 28.661 29.125 29.5312C29.125 30.4015 29.4707 31.2361 30.0861 31.8514C30.7014 32.4668 31.536 32.8125 32.4063 32.8125H38.9688C40.9993 32.8125 42.9467 33.6191 44.3825 35.055C45.8184 36.4908 46.625 38.4382 46.625 40.4688C46.625 42.4993 45.8184 44.4467 44.3825 45.8825C42.9467 47.3184 40.9993 48.125 38.9688 48.125Z" fill="#FA7A68"/>
</g>
</svg>
