<svg width="266" height="131" viewBox="0 0 236 121" fill="none" xmlns="http://www.w3.org/2000/svg">
  <!-- Half Circle -->
  <g id="halfCircle">
    <path d="M228.406 116.429C229.867 116.429 231.054 115.243 231.022 113.783C230.343 84.0978 218.255 55.7714 197.21 34.7271C175.542 13.0585 146.153 0.885254 115.509 0.885254C84.8655 0.885254 55.4761 13.0585 33.8075 34.7269C12.7633 55.7714 0.675202 84.0978 -0.00393587 113.783C-0.0373313 115.243 1.15017 116.429 2.61141 116.429C4.07249 116.429 5.25358 115.243 5.28858 113.783C5.9667 85.5007 17.4972 58.5204 37.549 38.4685C58.2252 17.7922 86.2684 6.17647 115.509 6.17647C144.75 6.17647 172.792 17.7922 193.469 38.4685C213.521 58.5204 225.05 85.5007 225.729 113.783C225.764 115.243 226.945 116.429 228.406 116.429Z" fill="#C4C4C4"/>
  </g>

  <!-- Quarter Circle -->
  <g id="quarterCircle" transform="translate(0, -1)">
    <path d="M6.08066 120.99C3.18197 121.122 0.711292 118.881 0.709687 115.979C0.701521 100.661 3.73919 85.4767 9.66535 71.315C16.2683 55.536 26.2925 41.4195 39.0144 29.9841C51.7362 18.5495 66.838 10.0821 83.2301 5.19336C97.9414 0.80573 113.363 -0.601251 128.592 1.03454C131.477 1.34443 133.444 4.0394 133.004 6.90761C132.563 9.77583 129.881 11.7298 126.994 11.4331C113.305 10.0256 99.4537 11.3206 86.2341 15.2636C71.3323 19.7077 57.6038 27.405 46.0391 37.8C34.4744 48.1949 25.3619 61.0266 19.3594 75.372C14.0339 88.0988 11.2745 101.733 11.2192 115.495C11.2075 118.397 8.9795 120.855 6.08066 120.99Z" fill="#FA7A68"/>
  </g>
</svg>