<svg width="20" height="21" viewBox="0 0 20 21" fill="none" xmlns="http://www.w3.org/2000/svg">
<g id="6239399b0dee596e6a26297e_Frame%204.svg">
<path id="Vector" d="M9.99984 2.40137C12.264 2.40137 12.5465 2.4097 13.4348 2.45137C14.3223 2.49303 14.9265 2.6322 15.4582 2.83887C16.0082 3.05053 16.4715 3.3372 16.9348 3.7997C17.3586 4.21628 17.6865 4.72019 17.8957 5.27637C18.1015 5.8072 18.2415 6.4122 18.2832 7.2997C18.3223 8.18803 18.3332 8.47054 18.3332 10.7347C18.3332 12.9988 18.3248 13.2813 18.2832 14.1697C18.2415 15.0572 18.1015 15.6613 17.8957 16.193C17.6871 16.7495 17.3591 17.2535 16.9348 17.6697C16.5181 18.0933 16.0143 18.4211 15.4582 18.6305C14.9273 18.8363 14.3223 18.9763 13.4348 19.018C12.5465 19.0572 12.264 19.068 9.99984 19.068C7.73567 19.068 7.45317 19.0597 6.56484 19.018C5.67734 18.9763 5.07317 18.8363 4.5415 18.6305C3.98511 18.4217 3.48111 18.0938 3.06484 17.6697C2.64101 17.2532 2.31311 16.7492 2.104 16.193C1.89734 15.6622 1.75817 15.0572 1.7165 14.1697C1.67734 13.2813 1.6665 12.9988 1.6665 10.7347C1.6665 8.47054 1.67484 8.18803 1.7165 7.2997C1.75817 6.41137 1.89734 5.80803 2.104 5.27637C2.31253 4.71985 2.64051 4.2158 3.06484 3.7997C3.48123 3.37573 3.98519 3.04781 4.5415 2.83887C5.07317 2.6322 5.6765 2.49303 6.56484 2.45137C7.45317 2.4122 7.73567 2.40137 9.99984 2.40137ZM9.99984 6.56804C8.89477 6.56804 7.83496 7.00702 7.05356 7.78842C6.27216 8.56983 5.83317 9.62963 5.83317 10.7347C5.83317 11.8398 6.27216 12.8996 7.05356 13.681C7.83496 14.4624 8.89477 14.9013 9.99984 14.9013C11.1049 14.9013 12.1647 14.4624 12.9461 13.681C13.7275 12.8996 14.1665 11.8398 14.1665 10.7347C14.1665 9.62963 13.7275 8.56983 12.9461 7.78842C12.1647 7.00702 11.1049 6.56804 9.99984 6.56804ZM15.4165 6.3597C15.4165 6.08343 15.3068 5.81848 15.1114 5.62313C14.9161 5.42778 14.6511 5.31803 14.3748 5.31803C14.0986 5.31803 13.8336 5.42778 13.6383 5.62313C13.4429 5.81848 13.3332 6.08343 13.3332 6.3597C13.3332 6.63597 13.4429 6.90092 13.6383 7.09627C13.8336 7.29162 14.0986 7.40137 14.3748 7.40137C14.6511 7.40137 14.9161 7.29162 15.1114 7.09627C15.3068 6.90092 15.4165 6.63597 15.4165 6.3597ZM9.99984 8.2347C10.6629 8.2347 11.2988 8.49809 11.7676 8.96693C12.2364 9.43578 12.4998 10.0717 12.4998 10.7347C12.4998 11.3977 12.2364 12.0336 11.7676 12.5024C11.2988 12.9713 10.6629 13.2347 9.99984 13.2347C9.3368 13.2347 8.70091 12.9713 8.23207 12.5024C7.76323 12.0336 7.49984 11.3977 7.49984 10.7347C7.49984 10.0717 7.76323 9.43578 8.23207 8.96693C8.70091 8.49809 9.3368 8.2347 9.99984 8.2347Z" fill="white"/>
</g>
</svg>
