<svg width="71" height="70" viewBox="0 0 71 70" fill="none" xmlns="http://www.w3.org/2000/svg">
<g id="62463d7d0dd325f268212851_PlugsConnected.svg">
<path id="Vector" d="M65.7457 5.00352C65.331 4.59274 64.7708 4.3623 64.1871 4.3623C63.6034 4.3623 63.0433 4.59274 62.6285 5.00352L48.8746 18.7848L47.398 17.3082C46.5876 16.4947 45.6246 15.8492 44.5641 15.4087C43.5037 14.9683 42.3667 14.7415 41.2184 14.7415C40.0701 14.7415 38.9331 14.9683 37.8726 15.4087C36.8121 15.8492 35.8491 16.4947 35.0387 17.3082L28.0934 24.2535L27.4645 23.5973C27.0394 23.2484 26.4999 23.0702 25.9507 23.0972C25.4015 23.1241 24.882 23.3544 24.4932 23.7432C24.1044 24.132 23.8741 24.6515 23.8472 25.2007C23.8202 25.7499 23.9984 26.2894 24.3473 26.7145L25.0035 27.3434L18.0582 34.2887C17.2447 35.0991 16.5992 36.0621 16.1587 37.1226C15.7183 38.1831 15.4915 39.3201 15.4915 40.4684C15.4915 41.6167 15.7183 42.7537 16.1587 43.8141C16.5992 44.8746 17.2447 45.8376 18.0582 46.648L19.5348 48.1246L5.75352 61.8785C5.34274 62.2933 5.1123 62.8534 5.1123 63.4371C5.1123 64.0208 5.34274 64.581 5.75352 64.9957C6.17164 65.4 6.73049 65.626 7.31211 65.626C7.89373 65.626 8.45258 65.4 8.8707 64.9957L22.6246 51.2145L24.1012 52.691C25.745 54.3207 27.9661 55.2351 30.2809 55.2351C32.5956 55.2351 34.8167 54.3207 36.4605 52.691L43.4059 45.7457L44.0348 46.402C44.4529 46.8062 45.0117 47.0322 45.5934 47.0322C46.175 47.0322 46.7338 46.8062 47.152 46.402C47.5627 45.9872 47.7932 45.4271 47.7932 44.8434C47.7932 44.2596 47.5627 43.6995 47.152 43.2848L46.4957 42.6559L53.441 35.7105C54.2545 34.9001 54.9 33.9371 55.3405 32.8766C55.781 31.8162 56.0077 30.6792 56.0077 29.5309C56.0077 28.3826 55.781 27.2456 55.3405 26.1851C54.9 25.1246 54.2545 24.1616 53.441 23.3512L51.9645 21.8746L65.7457 8.1207C66.1565 7.70597 66.3869 7.14584 66.3869 6.56211C66.3869 5.97838 66.1565 5.41825 65.7457 5.00352ZM50.3512 32.6207L43.4059 39.566L31.1832 27.3434L38.1285 20.398C38.5328 19.9896 39.014 19.6654 39.5444 19.4442C40.0747 19.2229 40.6437 19.109 41.2184 19.109C41.793 19.109 42.362 19.2229 42.8923 19.4442C43.4227 19.6654 43.9039 19.9896 44.3082 20.398L50.3512 26.441C50.7596 26.8453 51.0838 27.3265 51.305 27.8569C51.5263 28.3872 51.6402 28.9562 51.6402 29.5309C51.6402 30.1055 51.5263 30.6745 51.305 31.2048C51.0838 31.7352 50.7596 32.2164 50.3512 32.6207ZM64.0777 44.4332C63.9375 44.873 63.6601 45.2564 63.2861 45.527C62.9121 45.7977 62.4612 45.9414 61.9996 45.9371C61.7671 45.9407 61.5358 45.9037 61.316 45.8277L54.7535 43.6402C54.4806 43.5505 54.2281 43.4078 54.0103 43.2204C53.7925 43.0331 53.6138 42.8046 53.4843 42.5482C53.3548 42.2917 53.2771 42.0123 53.2556 41.7258C53.2341 41.4393 53.2692 41.1514 53.359 40.8785C53.4488 40.6056 53.5914 40.3531 53.7788 40.1353C53.9661 39.9175 54.1946 39.7388 54.451 39.6093C54.7075 39.4798 54.9869 39.4021 55.2734 39.3806C55.5599 39.3591 55.8478 39.3942 56.1207 39.484L62.6832 41.6715C62.9561 41.7612 63.2087 41.9039 63.4265 42.0912C63.6443 42.2786 63.823 42.507 63.9525 42.7635C64.082 43.02 64.1597 43.2994 64.1812 43.5859C64.2027 43.8724 64.1675 44.1603 64.0777 44.4332ZM7.42148 25.566C7.51125 25.2931 7.65387 25.0405 7.84124 24.8227C8.02861 24.605 8.25705 24.4262 8.5135 24.2967C8.76995 24.1672 9.0494 24.0895 9.33589 24.068C9.62238 24.0465 9.9103 24.0817 10.1832 24.1715L16.7457 26.359C17.2399 26.5214 17.6601 26.8547 17.9308 27.299C18.2015 27.7433 18.3049 28.2696 18.2226 28.7833C18.1403 29.297 17.8776 29.7645 17.4816 30.102C17.0856 30.4394 16.5824 30.6247 16.0621 30.6246C15.8296 30.6282 15.5983 30.5912 15.3785 30.5152L8.81602 28.3277C8.5431 28.238 8.29054 28.0954 8.07275 27.908C7.85496 27.7206 7.67621 27.4922 7.54672 27.2357C7.41722 26.9793 7.33951 26.6998 7.31802 26.4133C7.29653 26.1268 7.33169 25.8389 7.42148 25.566ZM24.9215 9.4332C24.8317 9.1603 24.7966 8.8724 24.8181 8.58591C24.8396 8.29943 24.9173 8.01998 25.0468 7.76353C25.1763 7.50708 25.355 7.27865 25.5728 7.09127C25.7906 6.9039 26.0431 6.76127 26.316 6.67148C26.8672 6.49019 27.4678 6.53525 27.9857 6.79678C28.5036 7.05831 28.8964 7.51486 29.0777 8.06602L31.2652 14.6285C31.355 14.9014 31.3902 15.1893 31.3687 15.4758C31.3472 15.7623 31.2695 16.0418 31.14 16.2982C31.0105 16.5547 30.8318 16.7831 30.614 16.9705C30.3962 17.1579 30.1436 17.3005 29.8707 17.3902C29.6509 17.4662 29.4196 17.5032 29.1871 17.4996C28.7255 17.5039 28.2746 17.3602 27.9006 17.0895C27.5267 16.8189 27.2492 16.4355 27.109 15.9957L24.9215 9.4332ZM46.5777 60.566C46.6675 60.8389 46.7027 61.1268 46.6812 61.4133C46.6597 61.6998 46.582 61.9793 46.4525 62.2357C46.323 62.4922 46.1443 62.7206 45.9265 62.908C45.7087 63.0954 45.4561 63.238 45.1832 63.3277C44.9634 63.4037 44.7321 63.4407 44.4996 63.4371C44.038 63.4414 43.5871 63.2977 43.2131 63.027C42.8392 62.7564 42.5617 62.373 42.4215 61.9332L40.234 55.3707C40.1442 55.0978 40.1091 54.8099 40.1306 54.5234C40.1521 54.2369 40.2298 53.9575 40.3593 53.701C40.4888 53.4446 40.6675 53.2161 40.8853 53.0288C41.1031 52.8414 41.3556 52.6988 41.6285 52.609C41.9014 52.5192 42.1893 52.4841 42.4758 52.5056C42.7623 52.5271 43.0417 52.6048 43.2982 52.7343C43.5546 52.8638 43.7831 53.0425 43.9704 53.2603C44.1578 53.4781 44.3005 53.7306 44.3902 54.0035L46.5777 60.566Z" fill="#C9FA75"/>
</g>
</svg>
