<svg width="20" height="21" viewBox="0 0 20 21" fill="none" xmlns="http://www.w3.org/2000/svg">
<g id="6239399b9f2e40d55be9ea07_Frame%203.svg">
<path id="Vector" d="M5.78353 4.90139C5.78331 5.34342 5.6075 5.76725 5.29478 6.07966C4.98207 6.39206 4.55806 6.56744 4.11603 6.56722C3.674 6.567 3.25017 6.39119 2.93776 6.07848C2.62536 5.76576 2.44997 5.34175 2.4502 4.89972C2.45042 4.45769 2.62622 4.03386 2.93894 3.72145C3.25166 3.40905 3.67567 3.23367 4.1177 3.23389C4.55972 3.23411 4.98356 3.40992 5.29596 3.72263C5.60837 4.03535 5.78375 4.45936 5.78353 4.90139ZM5.83353 7.80139H2.5002V18.2347H5.83353V7.80139ZM11.1002 7.80139H7.78353V18.2347H11.0669V12.7597C11.0669 9.70972 15.0419 9.42639 15.0419 12.7597V18.2347H18.3335V11.6264C18.3335 6.48472 12.4502 6.67639 11.0669 9.20139L11.1002 7.80139Z" fill="white"/>
</g>
</svg>
