<svg width="64" height="64" viewBox="0 0 64 64" fill="none" xmlns="http://www.w3.org/2000/svg">
<g id="6236935acdefd8e4970de6dc_Envelope.svg">
<g id="Group" opacity="0.7">
<path id="Vector" d="M57.9976 13.9523C57.9968 13.9153 57.9949 13.8784 57.992 13.8415C57.9896 13.8115 57.9867 13.7816 57.9829 13.7519C57.9787 13.7173 57.9733 13.683 57.9672 13.6486C57.9619 13.6176 57.9557 13.5869 57.9491 13.5564C57.9416 13.5238 57.9331 13.4915 57.924 13.4593C57.9152 13.4285 57.9064 13.3979 57.8963 13.3678C57.8859 13.3363 57.8741 13.3053 57.8621 13.2743C57.8507 13.2446 57.8387 13.2153 57.8259 13.1864C57.8123 13.1559 57.7976 13.1259 57.7824 13.096C57.768 13.0676 57.7531 13.0395 57.7376 13.012C57.7211 12.9835 57.704 12.9554 57.6864 12.9275C57.6683 12.8994 57.6499 12.8718 57.6307 12.8447C57.6125 12.8191 57.5936 12.794 57.5741 12.7691C57.5523 12.7411 57.5296 12.7138 57.5061 12.6871C57.4952 12.6744 57.4856 12.661 57.4744 12.6486C57.4648 12.6381 57.4541 12.6292 57.4443 12.6189C57.4203 12.5936 57.3952 12.5694 57.3699 12.5454C57.3461 12.5232 57.3224 12.5012 57.2981 12.4802C57.2741 12.4597 57.2493 12.4403 57.2243 12.4209C57.1968 12.3997 57.1696 12.3786 57.1416 12.359C57.1171 12.342 57.0917 12.3262 57.0667 12.3102C57.0368 12.2914 57.0072 12.2727 56.9768 12.2556C56.9501 12.2407 56.9227 12.2273 56.8955 12.2136C56.8653 12.1985 56.8355 12.1833 56.8048 12.1698C56.7747 12.1566 56.7443 12.1452 56.7136 12.1334C56.684 12.1222 56.6547 12.1108 56.6251 12.101C56.5925 12.0903 56.5595 12.0814 56.5267 12.0724C56.4971 12.0643 56.4675 12.0562 56.4379 12.0496C56.4048 12.0422 56.3712 12.0364 56.3379 12.0307C56.3061 12.0253 56.2744 12.0201 56.2427 12.0162C56.2109 12.0123 56.1792 12.0098 56.1472 12.0075C56.1123 12.0049 56.0773 12.0029 56.0421 12.0022C56.028 12.0018 56.0144 12 56 12H8C7.98656 12 7.97363 12.0018 7.96021 12.002C7.92333 12.0027 7.88648 12.0048 7.84973 12.0076C7.81933 12.0099 7.78917 12.0123 7.75928 12.0159C7.72571 12.0199 7.69237 12.0254 7.65893 12.0312C7.62707 12.0367 7.59523 12.0421 7.56397 12.0491C7.53245 12.0562 7.50147 12.0647 7.47021 12.0733C7.43872 12.0819 7.40723 12.0904 7.37635 12.1005C7.34509 12.1108 7.31435 12.1227 7.28344 12.1345C7.25427 12.1458 7.22499 12.1567 7.1964 12.1693C7.16456 12.1832 7.13341 12.199 7.10216 12.2147C7.07592 12.2279 7.04965 12.2408 7.02416 12.2551C6.99291 12.2726 6.9624 12.2918 6.93187 12.3112C6.90747 12.3267 6.8828 12.3421 6.85912 12.3586C6.83045 12.3785 6.80272 12.3998 6.77501 12.4214C6.75037 12.4406 6.72595 12.4597 6.70227 12.48C6.6776 12.501 6.65381 12.5232 6.62989 12.5457C6.60461 12.5695 6.57984 12.5937 6.55579 12.6188C6.54603 12.6291 6.53528 12.6381 6.52563 12.6486C6.51429 12.661 6.50475 12.6744 6.49379 12.6871C6.47045 12.7139 6.44776 12.7411 6.42579 12.7691C6.40637 12.794 6.38744 12.8191 6.36939 12.8447C6.35008 12.8718 6.33165 12.8994 6.31371 12.9275C6.29603 12.9554 6.2788 12.9834 6.26245 13.0119C6.24683 13.0395 6.23205 13.0676 6.21765 13.096C6.20251 13.1259 6.18773 13.1559 6.17408 13.1864C6.16125 13.2153 6.14941 13.2446 6.13795 13.2743C6.12584 13.3053 6.11413 13.3363 6.10363 13.3678C6.09363 13.3979 6.08472 13.4285 6.07605 13.4593C6.06701 13.4915 6.05848 13.5238 6.05101 13.5564C6.04419 13.5869 6.03821 13.6176 6.03272 13.6486C6.02661 13.683 6.02123 13.7173 6.01696 13.7519C6.01331 13.7816 6.01032 13.8115 6.00805 13.8415C6.00512 13.8785 6.00325 13.9154 6.00243 13.9523C6.00208 13.9683 6 13.9839 6 14V48C6.0012 49.0605 6.42304 50.0773 7.17291 50.8272C7.9228 51.5771 8.93949 51.9987 10 52H54C55.0605 51.9987 56.0773 51.5771 56.8272 50.8272C57.5771 50.0773 57.9987 49.0605 58 48V14C58 13.9839 57.9979 13.9683 57.9976 13.9523ZM10 18.5466L24.6765 32L10 45.4536V18.5466ZM13.1418 48L27.6365 34.7133L30.6485 37.4744C31.0173 37.8125 31.4995 38 32 38C32.5005 38 32.9827 37.8125 33.3515 37.4744L36.3637 34.7133L50.8584 48H13.1418ZM39.3235 32L54.0003 18.5462L54.0024 45.4555L39.3235 32Z" fill="white"/>
</g>
</g>
</svg>
