<svg width="64" height="64" viewBox="0 0 64 64" fill="none" xmlns="http://www.w3.org/2000/svg">
<rect width="64" height="64" rx="12" fill="#FFD978"/>
<path d="M32.001 34.5005C33.1055 34.5005 34.001 33.6051 34.001 32.5005C34.001 31.3959 33.1055 30.5005 32.001 30.5005C30.8964 30.5005 30.001 31.3959 30.001 32.5005C30.001 33.6051 30.8964 34.5005 32.001 34.5005Z" fill="black"/>
<path d="M43.3205 31.4863L40.0006 24.7669V20.0005C40.0006 19.4701 39.7899 18.9613 39.4148 18.5863C39.0398 18.2112 38.5311 18.0005 38.0006 18.0005H26.0006C25.4702 18.0005 24.9615 18.2112 24.5864 18.5863C24.2113 18.9613 24.0006 19.4701 24.0006 20.0005V24.7669L20.6807 31.4864C20.5175 31.815 20.4482 32.1823 20.4803 32.5479C20.5125 32.9134 20.645 33.2629 20.8632 33.558L30.098 46.1027C30.1604 46.1875 30.248 46.2504 30.3484 46.2825C30.4487 46.3146 30.5566 46.3142 30.6566 46.2813C30.7567 46.2484 30.8438 46.1848 30.9056 46.0995C30.9674 46.0142 31.0006 45.9116 31.0006 45.8062V36.3739C30.058 36.1305 29.2364 35.5517 28.69 34.7459C28.1436 33.9401 27.9098 32.9627 28.0325 31.9969C28.1552 31.0311 28.6259 30.1432 29.3564 29.4996C30.0869 28.856 31.0271 28.5009 32.0006 28.5009C32.9742 28.5009 33.9144 28.856 34.6449 29.4996C35.3754 30.1432 35.8461 31.0311 35.9687 31.9969C36.0914 32.9627 35.8576 33.9401 35.3112 34.7459C34.7648 35.5517 33.9433 36.1305 33.0006 36.3739V45.8062C33.0006 45.9116 33.0339 46.0142 33.0957 46.0995C33.1574 46.1848 33.2446 46.2484 33.3446 46.2813C33.4447 46.3141 33.5526 46.3146 33.6529 46.2825C33.7532 46.2504 33.8409 46.1875 33.9033 46.1026L43.138 33.5579C43.3562 33.2628 43.4887 32.9133 43.5209 32.5478C43.553 32.1823 43.4837 31.8149 43.3205 31.4863ZM38.0006 24.0005H26.0006V20.0005H38.0006V24.0005Z" fill="black"/>
</svg>
