<svg width="132" height="20" viewBox="0 0 132 20" fill="none" xmlns="http://www.w3.org/2000/svg">
<g id="623684193f25e8a69066165d_Group%20158.svg">
<path id="Vector" d="M10.0001 15.2165L4.12259 18.5065L5.43509 11.8998L0.489258 7.32651L7.17842 6.53317L10.0001 0.416504L12.8218 6.53317L19.5109 7.32651L14.5651 11.8998L15.8776 18.5065L10.0001 15.2165Z" fill="#FF9345"/>
<path id="Vector_2" d="M38.0001 15.2165L32.1226 18.5065L33.4351 11.8998L28.4893 7.32651L35.1784 6.53317L38.0001 0.416504L40.8218 6.53317L47.5109 7.32651L42.5651 11.8998L43.8776 18.5065L38.0001 15.2165Z" fill="#FF9345"/>
<path id="Vector_3" d="M66.0001 15.2165L60.1226 18.5065L61.4351 11.8998L56.4893 7.32651L63.1784 6.53317L66.0001 0.416504L68.8218 6.53317L75.5109 7.32651L70.5651 11.8998L71.8776 18.5065L66.0001 15.2165Z" fill="#FF9345"/>
<path id="Vector_4" d="M94.0001 15.2165L88.1226 18.5065L89.4351 11.8998L84.4893 7.32651L91.1784 6.53317L94.0001 0.416504L96.8218 6.53317L103.511 7.32651L98.5651 11.8998L99.8776 18.5065L94.0001 15.2165Z" fill="#FF9345"/>
<path id="Vector_5" d="M122 15.2165L116.123 18.5065L117.435 11.8998L112.489 7.32651L119.178 6.53317L122 0.416504L124.822 6.53317L131.511 7.32651L126.565 11.8998L127.878 18.5065L122 15.2165Z" fill="#FF9345"/>
</g>
</svg>
