<svg width="71" height="70" viewBox="0 0 71 70" fill="none" xmlns="http://www.w3.org/2000/svg">
<g id="62463eaa43184224bad6fa40_MicrosoftTeamsLogo.svg">
<path id="Vector" d="M60.5898 21.8741H59.3594C60.2918 20.4021 60.7851 18.6947 60.7812 16.9522C60.7808 15.3097 60.3451 13.6967 59.5187 12.2773C58.6924 10.8579 57.5047 9.68275 56.0766 8.87146C54.6485 8.06017 53.0309 7.64169 51.3886 7.65861C49.7462 7.67554 48.1376 8.12726 46.7266 8.96781C45.3823 7.07713 43.4717 5.66283 41.2709 4.92931C39.07 4.19579 36.693 4.18104 34.4832 4.88719C32.2734 5.59335 30.3454 6.98382 28.9778 8.85768C27.6101 10.7315 26.8737 12.9917 26.875 15.3116C26.8788 16.046 26.952 16.7784 27.0938 17.4991H11.5625C10.4022 17.4991 9.28938 17.96 8.46891 18.7805C7.64844 19.6009 7.1875 20.7137 7.1875 21.8741V48.1241C7.1875 49.2844 7.64844 50.3972 8.46891 51.2177C9.28938 52.0381 10.4022 52.4991 11.5625 52.4991H21.5977C22.9085 55.7319 25.1557 58.4991 28.0506 60.4456C30.9455 62.3921 34.3562 63.429 37.8446 63.4231C41.3331 63.4172 44.7402 62.3689 47.6286 60.4126C50.5169 58.4564 52.7547 55.6816 54.0547 52.4444C56.782 52.2117 59.323 50.9649 61.1759 48.95C63.0287 46.9352 64.0587 44.2988 64.0625 41.5616V25.3467C64.0625 24.8907 63.9727 24.4391 63.7982 24.0178C63.6236 23.5965 63.3678 23.2136 63.0454 22.8912C62.7229 22.5687 62.3401 22.3129 61.9188 22.1384C61.4974 21.9639 61.0459 21.8741 60.5898 21.8741ZM37.8125 8.74906C39.5508 8.75626 41.2158 9.44998 42.4449 10.6791C43.6741 11.9083 44.3678 13.5733 44.375 15.3116C44.3692 16.6165 43.9793 17.8909 43.2539 18.9756C42.8471 18.513 42.3466 18.1422 41.7857 17.8876C41.2247 17.633 40.616 17.5006 40 17.4991H31.6328C31.3844 16.7963 31.255 16.0569 31.25 15.3116C31.2572 13.5733 31.9509 11.9083 33.1801 10.6791C34.4092 9.44998 36.0742 8.75626 37.8125 8.74906ZM23.5938 41.5616V30.6241H20.8594C20.2792 30.6241 19.7228 30.3936 19.3126 29.9834C18.9023 29.5731 18.6719 29.0167 18.6719 28.4366C18.6719 27.8564 18.9023 27.3 19.3126 26.8898C19.7228 26.4795 20.2792 26.2491 20.8594 26.2491H30.7031C31.2833 26.2491 31.8397 26.4795 32.2499 26.8898C32.6602 27.3 32.8906 27.8564 32.8906 28.4366C32.8906 29.0167 32.6602 29.5731 32.2499 29.9834C31.8397 30.3936 31.2833 30.6241 30.7031 30.6241H27.9688V41.5616C27.9688 42.1417 27.7383 42.6981 27.328 43.1084C26.9178 43.5186 26.3614 43.7491 25.7812 43.7491C25.2011 43.7491 24.6447 43.5186 24.2345 43.1084C23.8242 42.6981 23.5938 42.1417 23.5938 41.5616ZM50.9375 45.9366C50.9375 49.4175 49.5547 52.7559 47.0933 55.2173C44.6319 57.6788 41.2935 59.0616 37.8125 59.0616C35.5099 59.0493 33.2502 58.4378 31.2557 57.2871C29.2612 56.1365 27.6006 54.4863 26.4375 52.4991H40C41.1603 52.4991 42.2731 52.0381 43.0936 51.2177C43.9141 50.3972 44.375 49.2844 44.375 48.1241V26.2491H50.9375V45.9366ZM51.4844 21.8741C50.75 21.8736 50.0251 21.7088 49.3627 21.3918C48.7003 21.0748 48.1173 20.6136 47.6562 20.042C48.3779 18.5696 48.752 16.9513 48.75 15.3116C48.7522 14.5483 48.6697 13.7871 48.5039 13.042C49.3569 12.3821 50.4059 12.0261 51.4844 12.0303C52.7897 12.0303 54.0416 12.5489 54.9647 13.4719C55.8877 14.3949 56.4062 15.6468 56.4062 16.9522C56.4062 18.2575 55.8877 19.5094 54.9647 20.4325C54.0416 21.3555 52.7897 21.8741 51.4844 21.8741ZM59.6875 41.5616C59.6838 42.9354 59.249 44.2734 58.4445 45.387C57.64 46.5005 56.5062 47.3336 55.2031 47.7686C55.2812 47.1611 55.3178 46.549 55.3125 45.9366V26.2491H59.6875V41.5616Z" fill="#CFB8FF"/>
</g>
</svg>
