<svg width="20" height="21" viewBox="0 0 20 21" fill="none" xmlns="http://www.w3.org/2000/svg">
<g id="6239399bddc899c93daf1a45_Frame%202.svg">
<path id="Vector" d="M18.4683 5.44764C17.8321 5.72905 17.1574 5.91387 16.4666 5.99598C17.1947 5.5605 17.7397 4.87515 17.9999 4.06764C17.3166 4.47431 16.5674 4.75931 15.7866 4.91348C15.2621 4.35229 14.5669 3.98011 13.8091 3.8548C13.0512 3.72948 12.2732 3.85805 11.596 4.22052C10.9187 4.58299 10.3802 5.15904 10.0642 5.85914C9.74812 6.55923 9.67221 7.34413 9.84826 8.09181C8.46251 8.02235 7.10687 7.66224 5.86933 7.03486C4.63179 6.40748 3.54003 5.52685 2.66492 4.45014C2.35516 4.98218 2.19238 5.587 2.19326 6.20264C2.19326 7.41097 2.80826 8.47847 3.74326 9.10347C3.18993 9.08606 2.64878 8.93663 2.16492 8.66764V8.71097C2.16509 9.51572 2.44356 10.2957 2.95313 10.9186C3.46269 11.5414 4.17199 11.9689 4.96076 12.1285C4.4471 12.2677 3.90851 12.2882 3.38576 12.1885C3.60814 12.8812 4.04159 13.487 4.62542 13.9211C5.20924 14.3552 5.9142 14.5958 6.64159 14.6093C5.91866 15.1771 5.0909 15.5968 4.20566 15.8445C3.32041 16.0921 2.39503 16.1629 1.48242 16.0527C3.0755 17.0772 4.93 17.6211 6.82409 17.6193C13.2349 17.6193 16.7408 12.3085 16.7408 7.70264C16.7408 7.55264 16.7366 7.40097 16.7299 7.25264C17.4123 6.75945 18.0013 6.14849 18.4691 5.44848L18.4683 5.44764Z" fill="white"/>
</g>
</svg>
