<svg width="71" height="70" viewBox="0 0 71 70" fill="none" xmlns="http://www.w3.org/2000/svg">
<g id="62463eaaef475d2aadfe734e_UsersFour.svg">
<path id="Vector" d="M7.8125 31.4976C9.7484 28.899 12.3316 26.8531 15.3047 25.564C13.6781 24.0759 12.5391 22.1309 12.0372 19.9842C11.5353 17.8374 11.6939 15.5891 12.4921 13.5341C13.2903 11.479 14.6909 9.71312 16.5103 8.468C18.3297 7.22288 20.4829 6.55664 22.6875 6.55664C24.8921 6.55664 27.0453 7.22288 28.8647 8.468C30.6841 9.71312 32.0847 11.479 32.8829 13.5341C33.6811 15.5891 33.8397 17.8374 33.3378 19.9842C32.8359 22.1309 31.6969 24.0759 30.0703 25.564C32.2127 26.4957 34.1607 27.8221 35.8125 29.4742C37.4643 27.8221 39.4123 26.4957 41.5547 25.564C39.9281 24.0759 38.7891 22.1309 38.2872 19.9842C37.7853 17.8374 37.9439 15.5891 38.7421 13.5341C39.5403 11.479 40.9409 9.71312 42.7603 8.468C44.5797 7.22288 46.7329 6.55664 48.9375 6.55664C51.1421 6.55664 53.2953 7.22288 55.1147 8.468C56.9341 9.71312 58.3347 11.479 59.1329 13.5341C59.9311 15.5891 60.0897 17.8374 59.5878 19.9842C59.0859 22.1309 57.9469 24.0759 56.3203 25.564C59.2934 26.8531 61.8766 28.899 63.8125 31.4976C63.9849 31.7274 64.1103 31.9889 64.1816 32.2672C64.2529 32.5455 64.2686 32.8351 64.228 33.1195C64.1874 33.4039 64.0911 33.6774 63.9448 33.9246C63.7984 34.1718 63.6048 34.3878 63.375 34.5601C62.9084 34.9012 62.3269 35.0464 61.7547 34.9647C61.1825 34.8829 60.665 34.5807 60.3125 34.1226C58.9881 32.3567 57.2707 30.9234 55.2963 29.9362C53.322 28.9491 51.1449 28.4351 48.9375 28.4351C46.7301 28.4351 44.553 28.9491 42.5787 29.9362C40.6043 30.9234 38.8869 32.3567 37.5625 34.1226L37.3984 34.2867H37.3711L37.2344 34.4234L37.1523 34.4781C37.1523 34.4853 37.1495 34.4923 37.1443 34.4974C37.1392 34.5025 37.1323 34.5054 37.125 34.5054L37.043 34.5601L36.9609 34.6148L36.8242 34.6968H36.7695L36.3047 34.8609H35.4023L35.1836 34.8062H35.1016L34.8555 34.6968L34.7734 34.6421C34.6854 34.5971 34.6028 34.5421 34.5273 34.4781H34.5L34.418 34.3961H34.3633C34.3086 34.3414 34.2539 34.314 34.2266 34.2593H34.1992L34.0352 34.0679C32.7081 32.3088 30.9903 30.8822 29.0174 29.9007C27.0446 28.9192 24.8706 28.4096 22.667 28.4123C20.4635 28.4149 18.2907 28.9297 16.3202 29.916C14.3497 30.9022 12.6353 32.333 11.3125 34.0953C11.1116 34.372 10.8487 34.5978 10.5448 34.7545C10.2408 34.9112 9.90443 34.9945 9.5625 34.9976C9.08821 35.0038 8.62573 34.8496 8.25 34.5601C8.02019 34.3878 7.82657 34.1718 7.68021 33.9246C7.53385 33.6774 7.43761 33.4039 7.39699 33.1195C7.35636 32.8351 7.37215 32.5455 7.44344 32.2672C7.51473 31.9889 7.64014 31.7274 7.8125 31.4976ZM56.3203 54.0015C57.9469 52.5134 59.0859 50.5684 59.5878 48.4217C60.0897 46.2749 59.9311 44.0266 59.1329 41.9716C58.3347 39.9165 56.9341 38.1506 55.1147 36.9055C53.2953 35.6604 51.1421 34.9941 48.9375 34.9941C46.7329 34.9941 44.5797 35.6604 42.7603 36.9055C40.9409 38.1506 39.5403 39.9165 38.7421 41.9716C37.9439 44.0266 37.7853 46.2749 38.2872 48.4217C38.7891 50.5684 39.9281 52.5134 41.5547 54.0015C39.4123 54.9332 37.4643 56.2596 35.8125 57.9117C34.1607 56.2596 32.2127 54.9332 30.0703 54.0015C31.6969 52.5134 32.8359 50.5684 33.3378 48.4217C33.8397 46.2749 33.6811 44.0266 32.8829 41.9716C32.0847 39.9165 30.6841 38.1506 28.8647 36.9055C27.0453 35.6604 24.8921 34.9941 22.6875 34.9941C20.4829 34.9941 18.3297 35.6604 16.5103 36.9055C14.6909 38.1506 13.2903 39.9165 12.4921 41.9716C11.6939 44.0266 11.5353 46.2749 12.0372 48.4217C12.5391 50.5684 13.6781 52.5134 15.3047 54.0015C12.3316 55.2906 9.7484 57.3365 7.8125 59.9351C7.56875 60.2601 7.42032 60.6466 7.38384 61.0512C7.34736 61.4558 7.42426 61.8625 7.60594 62.2259C7.78762 62.5893 8.06689 62.8948 8.41246 63.1084C8.75804 63.322 9.15626 63.4351 9.5625 63.4351H62.0625C62.4687 63.4351 62.867 63.322 63.2125 63.1084C63.5581 62.8948 63.8374 62.5893 64.0191 62.2259C64.2007 61.8625 64.2776 61.4558 64.2412 61.0512C64.2047 60.6466 64.0562 60.2601 63.8125 59.9351C61.8766 57.3365 59.2934 55.2906 56.3203 54.0015Z" fill="#FFD978"/>
</g>
</svg>
